<svg width="160" height="118" viewBox="0 0 160 118" fill="none" xmlns="http://www.w3.org/2000/svg">
<circle cx="3.5" cy="50" r="3" stroke="white"/>
<circle cx="39.5" cy="29" r="1.71429" stroke="white" stroke-width="0.571429"/>
<circle cx="75.5" cy="5.75" r="2.35714" stroke="white" stroke-width="0.785714"/>
<circle cx="114.5" cy="90.5" r="3" stroke="white"/>
<circle cx="97.5" cy="90.5" r="2.14286" stroke="white" stroke-width="0.714286"/>
<circle cx="54.5" cy="99.5" r="1.28571" stroke="white" stroke-width="0.428571"/>
<circle cx="100" cy="99" r="1.71429" stroke="white" stroke-width="0.571429"/>
<circle cx="153.5" cy="27.5" r="3" stroke="white"/>
<circle cx="157" cy="16" r="2.35714" stroke="white" stroke-width="1.28571"/>
<circle cx="125.5" cy="76.5" r="3" stroke="white"/>
<circle cx="138.5" cy="65" r="1.71429" stroke="white" stroke-width="0.571429"/>
<circle cx="89.5" cy="1.5" r="1.28571" stroke="white" stroke-width="0.428571"/>
<path d="M22.1619 7.00008C21.4064 7.00008 20.668 7.23468 20.0398 7.67421C19.4117 8.11373 18.9221 8.73845 18.633 9.46935C18.3439 10.2003 18.2682 11.0045 18.4156 11.7804C18.563 12.5564 18.9268 13.2691 19.461 13.8285C19.9952 14.3879 20.6758 14.7689 21.4167 14.9232C22.1577 15.0776 22.9257 14.9984 23.6236 14.6956C24.3216 14.3929 24.9181 13.8802 25.3379 13.2224C25.7576 12.5646 25.9816 11.7912 25.9816 11.0001C25.9816 9.93922 25.5792 8.9218 24.8628 8.17166C24.1465 7.42151 23.175 7.00008 22.1619 7.00008ZM23.642 12.2951C23.6247 12.3226 23.6023 12.3462 23.5762 12.3646C23.5502 12.383 23.5209 12.3958 23.49 12.4023C23.4592 12.4088 23.4274 12.4089 23.3966 12.4025C23.3657 12.3961 23.3364 12.3834 23.3102 12.3651L21.9017 11.3651V9.18758C21.9017 9.12128 21.9268 9.05769 21.9716 9.01081C22.0164 8.96392 22.0771 8.93758 22.1404 8.93758C22.2037 8.93758 22.2645 8.96392 22.3092 9.01081C22.354 9.05769 22.3792 9.12128 22.3792 9.18758V11.1001L23.5728 11.9476C23.5992 11.9655 23.622 11.9888 23.6398 12.016C23.6576 12.0433 23.6701 12.0739 23.6765 12.1062C23.683 12.1385 23.6832 12.1719 23.6773 12.2043C23.6714 12.2367 23.6594 12.2675 23.642 12.2951ZM23.5585 8.55758C23.2226 8.34556 22.8469 8.21215 22.4571 8.16649C22.0673 8.12083 21.6727 8.16401 21.3004 8.29307C20.928 8.42212 20.5868 8.634 20.3 8.91416C20.0132 9.19433 19.7877 9.53614 19.6389 9.91616C19.4901 10.2962 19.4216 10.7054 19.4381 11.1158C19.4545 11.5261 19.5555 11.9279 19.7342 12.2935C19.9129 12.6591 20.1649 12.98 20.4731 13.234C20.7813 13.488 21.1384 13.6692 21.5197 13.7651L21.4457 14.1576C21.0084 14.051 20.5983 13.8462 20.2438 13.5575C19.8894 13.2688 19.599 12.903 19.3927 12.4853C19.1864 12.0676 19.0691 11.608 19.0489 11.1382C19.0287 10.6684 19.1062 10.1997 19.2758 9.76425C19.4455 9.32885 19.7034 8.9372 20.0316 8.61632C20.3599 8.29545 20.7508 8.053 21.1772 7.90572C21.6037 7.75843 22.0556 7.70981 22.5018 7.76323C22.9479 7.81664 23.3777 7.97081 23.7614 8.21508L23.5585 8.55758Z" fill="#0089FF"/>
<path d="M4.5 88.0001C3.60999 88.0001 2.73996 88.264 1.99994 88.7585C1.25991 89.253 0.683138 89.9558 0.342544 90.778C0.00194978 91.6003 -0.0871652 92.5051 0.0864682 93.378C0.260102 94.2509 0.688685 95.0528 1.31802 95.6821C1.94736 96.3114 2.74918 96.74 3.62209 96.9137C4.49501 97.0873 5.39981 96.9982 6.22208 96.6576C7.04434 96.317 7.74715 95.7402 8.24161 95.0002C8.73608 94.2602 9 93.3901 9 92.5001C9 91.3066 8.52589 90.1621 7.68198 89.3181C6.83807 88.4742 5.69347 88.0001 4.5 88.0001ZM6.24375 93.957C6.22332 93.9879 6.19698 94.0145 6.16624 94.0352C6.13551 94.0559 6.10098 94.0703 6.06465 94.0776C6.02832 94.085 5.99091 94.085 5.95455 94.0778C5.9182 94.0706 5.88362 94.0563 5.85281 94.0357L4.19344 92.9107V90.4611C4.19344 90.3865 4.22307 90.3149 4.27581 90.2622C4.32856 90.2094 4.4001 90.1798 4.47469 90.1798C4.54928 90.1798 4.62082 90.2094 4.67356 90.2622C4.72631 90.3149 4.75594 90.3865 4.75594 90.4611V92.6126L6.16219 93.5661C6.19333 93.5863 6.22016 93.6124 6.24114 93.6431C6.26211 93.6737 6.27682 93.7082 6.2844 93.7445C6.29198 93.7809 6.29229 93.8184 6.28532 93.8548C6.27834 93.8913 6.26421 93.926 6.24375 93.957ZM6.14531 89.7523C5.74958 89.5138 5.30694 89.3637 4.84775 89.3123C4.38855 89.261 3.92368 89.3095 3.48503 89.4547C3.04638 89.5999 2.64433 89.8383 2.30646 90.1535C1.96859 90.4686 1.7029 90.8532 1.52762 91.2807C1.35235 91.7082 1.27163 92.1686 1.29101 92.6303C1.31039 93.0919 1.4294 93.5439 1.63989 93.9552C1.85038 94.3666 2.14736 94.7275 2.51045 95.0132C2.87355 95.299 3.29416 95.5028 3.74344 95.6107L3.65625 96.0523C3.14099 95.9324 2.65788 95.7021 2.2403 95.3772C1.82271 95.0524 1.48058 94.6409 1.23754 94.171C0.994493 93.7011 0.856317 93.184 0.83255 92.6555C0.808782 92.127 0.89999 91.5996 1.09988 91.1098C1.29976 90.62 1.60356 90.1794 1.99031 89.8184C2.37706 89.4574 2.83754 89.1847 3.33996 89.019C3.84238 88.8533 4.37477 88.7986 4.90039 88.8587C5.426 88.9187 5.93232 89.0922 6.38438 89.367L6.14531 89.7523Z" fill="#0089FF"/>
<path d="M111.512 4.82391C110.827 4.82843 110.16 5.04539 109.593 5.44735C109.027 5.8493 108.587 6.4182 108.329 7.08211C108.072 7.74601 108.008 8.4751 108.146 9.17717C108.285 9.87925 108.618 10.5228 109.106 11.0264C109.593 11.53 110.212 11.871 110.884 12.0064C111.556 12.1418 112.252 12.0655 112.882 11.787C113.513 11.5085 114.05 11.0405 114.426 10.442C114.803 9.84357 115.001 9.1416 114.996 8.42487C114.99 7.46376 114.619 6.54444 113.966 5.86913C113.312 5.19381 112.43 4.81784 111.512 4.82391ZM112.884 9.6121C112.869 9.6371 112.849 9.65864 112.825 9.67547C112.802 9.6923 112.775 9.70409 112.747 9.71017C112.719 9.71624 112.691 9.71649 112.663 9.71088C112.635 9.70528 112.608 9.69394 112.584 9.67751L111.302 8.77999L111.289 6.80726C111.289 6.74719 111.311 6.68943 111.351 6.64668C111.392 6.60394 111.447 6.57971 111.504 6.57934C111.561 6.57896 111.616 6.60245 111.657 6.64466C111.698 6.68687 111.721 6.74433 111.722 6.8044L111.733 8.53705L112.82 9.2977C112.844 9.31381 112.864 9.33476 112.881 9.35932C112.897 9.38388 112.909 9.41158 112.915 9.4408C112.921 9.47003 112.921 9.50022 112.916 9.52962C112.911 9.55902 112.9 9.58705 112.884 9.6121ZM112.786 6.22657C112.481 6.0365 112.14 5.91788 111.786 5.87885C111.433 5.83982 111.076 5.88131 110.739 6.00046C110.402 6.11961 110.095 6.31361 109.836 6.56914C109.578 6.82468 109.376 7.1357 109.243 7.48087C109.111 7.82605 109.051 8.1972 109.069 8.56887C109.086 8.94053 109.18 9.30392 109.344 9.63409C109.508 9.96426 109.738 10.2534 110.019 10.4817C110.3 10.71 110.624 10.872 110.97 10.9566L110.906 11.3126C110.509 11.2187 110.136 11.0356 109.813 10.7762C109.49 10.5167 109.225 10.187 109.036 9.80987C108.846 9.43269 108.737 9.01701 108.716 8.59153C108.695 8.16605 108.763 7.7409 108.914 7.34543C109.065 6.94995 109.296 6.59359 109.591 6.30092C109.887 6.00825 110.24 5.78626 110.625 5.65027C111.011 5.51428 111.42 5.46753 111.824 5.51325C112.229 5.55897 112.619 5.69606 112.968 5.91507L112.786 6.22657Z" fill="#0089FF"/>
<path d="M73.9969 115.204L73.997 115.204C74.0244 115.161 74.043 115.112 74.0522 115.062C74.0614 115.012 74.061 114.96 74.051 114.91C74.041 114.859 74.0216 114.811 73.9935 114.769C73.9657 114.726 73.93 114.689 73.8879 114.66L72.8654 113.934V112.268C72.8654 112.165 72.8266 112.066 72.7553 111.991C72.6837 111.916 72.585 111.872 72.4803 111.872C72.3756 111.872 72.2769 111.916 72.2053 111.991C72.134 112.066 72.0952 112.165 72.0952 112.268V114.263V114.349L72.1653 114.399L73.4559 115.315L73.4559 115.315L73.4568 115.316C73.499 115.345 73.5469 115.366 73.5976 115.377C73.6483 115.387 73.7006 115.387 73.7513 115.376C73.802 115.366 73.8497 115.345 73.8919 115.315C73.934 115.285 73.9696 115.247 73.9969 115.204ZM73.6909 111.831L73.8356 111.923L73.9228 111.775L74.1088 111.462L74.1909 111.323L74.055 111.236C73.6826 110.999 73.2651 110.849 72.8312 110.797C72.3973 110.746 71.9579 110.793 71.5434 110.936C71.129 111.079 70.7498 111.314 70.4317 111.625C70.1137 111.936 69.8644 112.315 69.7004 112.736C69.5366 113.156 69.4619 113.609 69.4813 114.062C69.5008 114.516 69.614 114.959 69.8134 115.363C70.0128 115.767 70.2937 116.121 70.6374 116.401C70.9811 116.681 71.3792 116.88 71.8044 116.983L71.9747 117.025L72.0072 116.853L72.075 116.493L72.1041 116.339L71.9521 116.301C71.627 116.219 71.3221 116.064 71.0584 115.847C70.7947 115.63 70.5784 115.355 70.4249 115.041C70.2715 114.727 70.1845 114.381 70.1703 114.028C70.1562 113.675 70.2152 113.323 70.3431 112.996C70.471 112.669 70.6646 112.376 70.9102 112.136C71.1557 111.896 71.4475 111.715 71.7651 111.605C72.0826 111.495 72.419 111.458 72.7511 111.497C73.0833 111.536 73.4039 111.65 73.6909 111.831ZM70.6509 111.017C71.1989 110.634 71.8424 110.43 72.5 110.43C73.3816 110.43 74.2287 110.796 74.8546 111.452C75.4806 112.107 75.8336 112.998 75.8336 113.929C75.8336 114.622 75.6372 115.3 75.2699 115.875C74.9027 116.451 74.3815 116.898 73.7732 117.162C73.165 117.426 72.4962 117.495 71.8511 117.361C71.2059 117.226 70.6122 116.894 70.1454 116.405C69.6786 115.917 69.3599 115.293 69.2307 114.613C69.1015 113.932 69.1679 113.227 69.4211 112.587C69.6744 111.947 70.1027 111.401 70.6509 111.017Z" stroke="white" stroke-width="0.33273"/>
<path d="M130 40.5278C129.011 40.5278 128.044 40.8349 127.222 41.4102C126.4 41.9856 125.759 42.8033 125.381 43.7601C125.002 44.7169 124.903 45.7696 125.096 46.7853C125.289 47.801 125.765 48.734 126.464 49.4663C127.164 50.1985 128.055 50.6972 129.025 50.8993C129.994 51.1013 131 50.9976 131.913 50.6013C132.827 50.205 133.608 49.5339 134.157 48.6728C134.707 47.8118 135 46.7994 135 45.7638C135 44.3752 134.473 43.0434 133.536 42.0614C132.598 41.0795 131.326 40.5278 130 40.5278ZM131.938 47.459C131.915 47.495 131.886 47.5259 131.851 47.55C131.817 47.5741 131.779 47.5909 131.739 47.5994C131.698 47.6079 131.657 47.608 131.616 47.5996C131.576 47.5912 131.537 47.5746 131.503 47.5506L129.659 46.2416V43.3913C129.659 43.3045 129.692 43.2212 129.751 43.1599C129.81 43.0985 129.889 43.064 129.972 43.064C130.055 43.064 130.134 43.0985 130.193 43.1599C130.251 43.2212 130.284 43.3045 130.284 43.3913V45.8947L131.847 47.0041C131.881 47.0276 131.911 47.0581 131.935 47.0937C131.958 47.1294 131.974 47.1695 131.983 47.2118C131.991 47.2541 131.991 47.2977 131.984 47.3401C131.976 47.3826 131.96 47.423 131.938 47.459ZM131.828 42.5666C131.388 42.2891 130.897 42.1144 130.386 42.0546C129.876 41.9949 129.36 42.0514 128.872 42.2203C128.385 42.3893 127.938 42.6666 127.563 43.0334C127.187 43.4001 126.892 43.8475 126.697 44.345C126.503 44.8424 126.413 45.3781 126.434 45.9153C126.456 46.4524 126.588 46.9783 126.822 47.4569C127.056 47.9356 127.386 48.3555 127.789 48.688C128.193 49.0205 128.66 49.2577 129.159 49.3832L129.063 49.897C128.49 49.7575 127.953 49.4895 127.489 49.1116C127.025 48.7336 126.645 48.2547 126.375 47.708C126.105 47.1612 125.951 46.5596 125.925 45.9446C125.899 45.3297 126 44.7161 126.222 44.1461C126.444 43.5762 126.782 43.0635 127.211 42.6435C127.641 42.2235 128.153 41.9061 128.711 41.7133C129.269 41.5205 129.861 41.4569 130.445 41.5268C131.029 41.5967 131.591 41.7985 132.094 42.1183L131.828 42.5666Z" fill="#0089FF"/>
<path d="M24.2664 66.1619L24.2665 66.1619C24.3173 66.0813 24.3519 65.9918 24.369 65.8984C24.386 65.805 24.3853 65.7092 24.3667 65.6161C24.3482 65.523 24.3121 65.434 24.26 65.3543C24.2085 65.2755 24.1422 65.2072 24.0643 65.1536L22.1681 63.8074V60.7169C22.1681 60.5269 22.0962 60.342 21.9639 60.2035C21.8312 60.0645 21.6481 59.9836 21.454 59.9836C21.2599 59.9836 21.0767 60.0645 20.944 60.2035C20.8118 60.342 20.7398 60.5269 20.7398 60.7169V64.417V64.5763L20.8697 64.6685L23.2631 66.3678L23.2648 66.3689C23.3431 66.4238 23.4318 66.4624 23.5259 66.4819C23.6199 66.5014 23.7169 66.5012 23.8109 66.4813C23.9049 66.4615 23.9934 66.4226 24.0716 66.3675C24.1497 66.3124 24.2157 66.2423 24.2664 66.1619ZM23.6989 59.9073L23.9672 60.0767L24.129 59.8037L24.4738 59.2217L24.6261 58.9647L24.374 58.8042C23.6835 58.3646 22.9092 58.0866 22.1046 57.9903C21.3 57.894 20.4852 57.9817 19.7166 58.2472C18.9481 58.5126 18.2449 58.9491 17.655 59.5256C17.0653 60.1021 16.6029 60.8048 16.2989 61.5848C15.995 62.3648 15.8565 63.204 15.8926 64.0447C15.9287 64.8854 16.1386 65.7085 16.5083 66.4571C16.8781 67.2057 17.3991 67.8625 18.0364 68.3816C18.6737 68.9007 19.412 69.2696 20.2005 69.4618L20.5164 69.5388L20.5767 69.2192L20.7024 68.5523L20.7563 68.2668L20.4745 68.1959C19.8716 68.0443 19.3061 67.7576 18.8171 67.3546C18.3281 66.9515 17.9271 66.4416 17.6424 65.8591C17.3578 65.2767 17.1966 64.6359 17.1703 63.981C17.1441 63.326 17.2535 62.6732 17.4906 62.0674C17.7278 61.4617 18.0868 60.9179 18.5423 60.473C18.9977 60.0281 19.5386 59.6926 20.1276 59.4885C20.7165 59.2843 21.3402 59.2161 21.9561 59.2883C22.5721 59.3604 23.1666 59.5713 23.6989 59.9073ZM18.0614 58.3982C19.0778 57.687 20.2711 57.3084 21.4905 57.3084C23.1253 57.3084 24.6963 57.9884 25.8568 59.2037C27.0178 60.4195 27.6724 62.0715 27.6724 63.7968C27.6724 65.0831 27.3081 66.3395 26.627 67.407C25.946 68.4743 24.9796 69.3039 23.8515 69.7932C22.7237 70.2825 21.4835 70.4102 20.2872 70.161C19.0907 69.9118 17.9897 69.2962 17.1241 68.3898C16.2584 67.4832 15.6674 66.3265 15.4278 65.0652C15.1882 63.8038 15.3113 62.4966 15.7809 61.3092C16.2506 60.1219 17.0449 59.1094 18.0614 58.3982Z" stroke="white" stroke-width="0.617021"/>
<path d="M141.997 17.2038L141.997 17.2038C142.024 17.1604 142.043 17.1121 142.052 17.0617C142.061 17.0114 142.061 16.9597 142.051 16.9095C142.041 16.8593 142.022 16.8113 141.993 16.7683C141.966 16.7258 141.93 16.689 141.888 16.6601L140.865 15.9341V14.2676C140.865 14.1651 140.827 14.0654 140.755 13.9907C140.684 13.9158 140.585 13.8722 140.48 13.8722C140.376 13.8722 140.277 13.9158 140.205 13.9907C140.134 14.0654 140.095 14.1651 140.095 14.2676V16.2629V16.3488L140.165 16.3985L141.456 17.3148L141.456 17.3148L141.457 17.3155C141.499 17.345 141.547 17.3658 141.598 17.3764C141.648 17.3869 141.701 17.3868 141.751 17.3761C141.802 17.3654 141.85 17.3444 141.892 17.3147C141.934 17.2849 141.97 17.2472 141.997 17.2038ZM141.691 13.831L141.836 13.9224L141.923 13.7751L142.109 13.4613L142.191 13.3227L142.055 13.2362C141.683 12.9991 141.265 12.8492 140.831 12.7973C140.397 12.7453 139.958 12.7926 139.543 12.9358C139.129 13.0789 138.75 13.3143 138.432 13.6252C138.114 13.936 137.864 14.315 137.7 14.7356C137.537 15.1562 137.462 15.6087 137.481 16.0621C137.501 16.5155 137.614 16.9593 137.813 17.363C138.013 17.7667 138.294 18.1209 138.637 18.4008C138.981 18.6807 139.379 18.8796 139.804 18.9833L139.975 19.0248L140.007 18.8525L140.075 18.4928L140.104 18.3389L139.952 18.3007C139.627 18.2189 139.322 18.0643 139.058 17.8469C138.795 17.6296 138.578 17.3546 138.425 17.0405C138.271 16.7264 138.185 16.3809 138.17 16.0277C138.156 15.6746 138.215 15.3225 138.343 14.9959C138.471 14.6692 138.665 14.376 138.91 14.1361C139.156 13.8962 139.447 13.7152 139.765 13.6051C140.083 13.4951 140.419 13.4583 140.751 13.4972C141.083 13.5361 141.404 13.6498 141.691 13.831ZM138.651 13.0172C139.199 12.6337 139.842 12.4295 140.5 12.4295C141.382 12.4295 142.229 12.7962 142.855 13.4516C143.481 14.1072 143.834 14.998 143.834 15.9284C143.834 16.6221 143.637 17.2996 143.27 17.8752C142.903 18.4508 142.381 18.8981 141.773 19.162C141.165 19.4258 140.496 19.4947 139.851 19.3603C139.206 19.2259 138.612 18.894 138.145 18.4052C137.679 17.9163 137.36 17.2926 137.231 16.6124C137.101 15.9322 137.168 15.2273 137.421 14.587C137.674 13.9467 138.103 13.4008 138.651 13.0172Z" stroke="white" stroke-width="0.33273"/>
<path d="M51.5204 80.4919L51.7224 79.8896L51.3484 79.376C47.1814 73.6534 44.7308 66.6066 44.7308 59C44.7308 39.8254 60.3215 24.2308 79.491 24.2308H79.509C98.6784 24.2308 114.269 39.8298 114.269 59C114.269 78.1702 98.6784 93.7692 79.509 93.7692C72.4361 93.7692 65.881 91.6663 60.3842 88.0249L59.8921 87.6989L59.3297 87.8787L47.8066 91.5623L51.5204 80.4919Z" fill="white" stroke="#007AE8" stroke-width="2.46154"/>
<path d="M100.457 73.8365C99.5883 76.289 96.1413 78.323 93.3918 78.917C91.5108 79.3175 89.0538 79.637 80.7828 76.208C70.2033 71.825 63.3903 61.0745 62.8593 60.377C62.3508 59.6795 58.5843 54.6845 58.5843 49.5185C58.5843 44.3525 61.2078 41.837 62.2653 40.757C63.1338 39.8705 64.5693 39.4655 65.9463 39.4655C66.3918 39.4655 66.7923 39.488 67.1523 39.506C68.2098 39.551 68.7408 39.614 69.4383 41.2835C70.3068 43.376 72.4218 48.542 72.6738 49.073C72.9303 49.604 73.1868 50.324 72.8268 51.0215C72.4893 51.7415 72.1923 52.061 71.6613 52.673C71.1303 53.285 70.6263 53.753 70.0953 54.41C69.6093 54.9815 69.0603 55.5935 69.6723 56.651C70.2843 57.686 72.3993 61.1375 75.5133 63.9095C79.5318 67.487 82.7898 68.63 83.9553 69.116C84.8238 69.476 85.8588 69.3905 86.4933 68.7155C87.2988 67.847 88.2933 66.407 89.3058 64.9895C90.0258 63.9725 90.9348 63.8465 91.8888 64.2065C92.8608 64.544 98.0043 67.0865 99.0618 67.613C100.119 68.144 100.817 68.396 101.073 68.8415C101.325 69.287 101.325 71.3795 100.457 73.8365Z" fill="#4DC98D"/>
</svg>
