<svg width="75" height="21" viewBox="0 0 75 21" fill="none" xmlns="http://www.w3.org/2000/svg">
<path d="M9.05498 4.89381L6.4926 2.62042L5.06691 1.32959V1.34886L5.04764 1.32959L3.58342 2.65895L1.05957 4.89381L2.3504 6.35803L5.02838 3.93051L7.76416 6.35803L9.05498 4.89381Z" fill="url(#paint0_linear_955_5313)"/>
<path d="M3.92969 16.068V7.20557H6.20308V16.068H3.92969Z" fill="white"/>
<path d="M17.3777 16.0681H15.1043V11.1553C15.1043 10.4617 14.9887 9.94153 14.7383 9.614C14.4878 9.28648 14.141 9.13235 13.6979 9.13235C13.3896 9.13235 13.0814 9.20942 12.7731 9.36355C12.4649 9.51767 12.1759 9.7296 11.9447 9.99933C11.6942 10.2691 11.5208 10.5773 11.4052 10.9241V16.0489H9.13184V7.28281H11.174V8.92043C11.4052 8.53511 11.6942 8.22685 12.041 7.95712C12.3878 7.6874 12.7924 7.49474 13.2548 7.35988C13.7172 7.22501 14.1988 7.14795 14.6997 7.14795C15.2584 7.14795 15.7016 7.24428 16.0676 7.43694C16.4144 7.6296 16.7034 7.89933 16.8768 8.22685C17.0695 8.55437 17.185 8.92043 17.2621 9.34428C17.3392 9.74887 17.3777 10.1727 17.3777 10.5966V16.0681Z" fill="white"/>
<path d="M22.6178 16.222C21.8664 16.222 21.1343 16.1064 20.46 15.8559C19.7664 15.6055 19.1884 15.2394 18.6875 14.7578L19.4967 13.2936C20.0361 13.7174 20.5563 14.0449 21.0572 14.2376C21.5774 14.4495 22.0591 14.5458 22.5407 14.5458C22.9838 14.5458 23.3306 14.4688 23.6003 14.3147C23.8701 14.1605 24.0049 13.9293 24.0049 13.6211C24.0049 13.4092 23.9279 13.2358 23.793 13.1202C23.6389 13.0046 23.4269 12.9082 23.1572 12.8119C22.8875 12.7156 22.5407 12.6192 22.1554 12.5036C21.5003 12.2917 20.9609 12.0798 20.5178 11.8871C20.0747 11.6945 19.7471 11.4247 19.5352 11.1358C19.3233 10.8275 19.2077 10.4422 19.2077 9.96053C19.2077 9.38255 19.3618 8.88163 19.6508 8.45778C19.9591 8.03392 20.3636 7.7064 20.9031 7.47521C21.4425 7.24401 22.0591 7.12842 22.7912 7.12842C23.4269 7.12842 24.0242 7.22475 24.5829 7.41741C25.1416 7.61007 25.6618 7.93759 26.1242 8.38071L25.2187 9.82567C24.7756 9.47888 24.3325 9.22842 23.9279 9.05502C23.5233 8.9009 23.1187 8.80456 22.6948 8.80456C22.4636 8.80456 22.2325 8.82383 22.0205 8.88163C21.8086 8.93943 21.6352 9.03576 21.5196 9.15135C21.3847 9.28622 21.3269 9.45961 21.3269 9.6908C21.3269 9.90273 21.3847 10.0569 21.5003 10.1917C21.6159 10.3073 21.8086 10.4036 22.0398 10.5C22.2903 10.5963 22.5792 10.6926 22.926 10.8082C23.6389 11.0009 24.2361 11.2128 24.737 11.4247C25.2187 11.6367 25.604 11.8871 25.8545 12.1954C26.1049 12.5036 26.2205 12.9275 26.2205 13.4477C26.2205 14.3147 25.893 14.989 25.2572 15.4706C24.5636 15.9908 23.6967 16.222 22.6178 16.222Z" fill="white"/>
<path d="M33.0215 16.2223C32.328 16.2223 31.7307 16.0681 31.2105 15.7599C30.6903 15.4516 30.2858 15.047 29.9775 14.5076V19.6516H27.7041V7.28281H29.6885V8.80483C30.0353 8.28465 30.4591 7.88006 30.9793 7.59107C31.4995 7.30208 32.0968 7.14795 32.7518 7.14795C33.3491 7.14795 33.9078 7.26355 34.4087 7.49474C34.9096 7.72593 35.3527 8.05345 35.7188 8.47731C36.0848 8.90116 36.3738 9.38281 36.5858 9.92226C36.7977 10.4617 36.894 11.0397 36.894 11.6755C36.894 12.5232 36.7206 13.2938 36.3931 13.9874C36.0656 14.681 35.6032 15.2204 35.0252 15.6443C34.4472 16.0296 33.7729 16.2223 33.0215 16.2223ZM32.2702 14.2957C32.6169 14.2957 32.9445 14.2186 33.2142 14.0837C33.5032 13.9489 33.7344 13.7369 33.9463 13.4865C34.1582 13.236 34.3124 12.947 34.428 12.6388C34.5435 12.3305 34.5821 12.003 34.5821 11.6562C34.5821 11.2902 34.5243 10.9626 34.4087 10.6351C34.2931 10.3268 34.1197 10.0571 33.8885 9.80666C33.6573 9.55621 33.4069 9.38281 33.0986 9.24795C32.7903 9.11309 32.4821 9.05529 32.116 9.05529C31.9041 9.05529 31.6922 9.09382 31.461 9.17088C31.2491 9.24795 31.0371 9.34428 30.8252 9.47914C30.6133 9.614 30.4399 9.76813 30.2858 9.94153C30.1316 10.1149 30.016 10.3076 29.9582 10.5195V12.581C30.0931 12.9085 30.2858 13.1975 30.5169 13.4479C30.7481 13.7177 31.0179 13.9103 31.3261 14.0645C31.6344 14.2186 31.9426 14.2957 32.2702 14.2957Z" fill="white"/>
<path d="M42.5579 16.222C41.845 16.222 41.2093 16.1064 40.6313 15.8559C40.0533 15.6247 39.5717 15.278 39.1671 14.8734C38.7625 14.4495 38.4542 13.9679 38.223 13.4284C38.0111 12.889 37.8955 12.311 37.8955 11.7137C37.8955 10.8853 38.0882 10.1147 38.4542 9.42108C38.8395 8.7275 39.379 8.16878 40.0726 7.7642C40.7854 7.34034 41.6139 7.12842 42.5772 7.12842C43.5405 7.12842 44.3689 7.34034 45.0625 7.7642C45.7561 8.18805 46.2762 8.7275 46.6423 9.42108C47.0084 10.1147 47.201 10.8468 47.201 11.6367C47.201 11.7715 47.201 11.9064 47.1817 12.0413C47.1625 12.1761 47.1625 12.2917 47.1432 12.3881H40.2845C40.323 12.8312 40.4579 13.2165 40.6891 13.544C40.901 13.8715 41.19 14.122 41.5368 14.2954C41.8836 14.4688 42.2496 14.5458 42.6542 14.5458C43.0973 14.5458 43.5405 14.4303 43.9258 14.2183C44.3111 14.0064 44.6001 13.7174 44.7542 13.3514L46.7001 13.8908C46.4882 14.3339 46.1799 14.7385 45.7753 15.0853C45.3707 15.4321 44.9084 15.7018 44.3689 15.9137C43.8102 16.1257 43.2129 16.222 42.5579 16.222ZM40.2267 10.9624H44.8698C44.8313 10.5192 44.6964 10.1339 44.4845 9.8064C44.2726 9.47888 44.0028 9.22842 43.6561 9.05502C43.3093 8.88163 42.9432 8.7853 42.5194 8.7853C42.1148 8.7853 41.7487 8.88163 41.4019 9.05502C41.0744 9.22842 40.8047 9.49814 40.5928 9.8064C40.4001 10.1339 40.2845 10.5192 40.2267 10.9624Z" fill="white"/>
<path d="M52.6927 16.222C51.9798 16.222 51.344 16.1064 50.7661 15.8559C50.1881 15.6247 49.7064 15.278 49.3018 14.8734C48.8972 14.4495 48.589 13.9679 48.3578 13.4284C48.1459 12.889 48.0303 12.311 48.0303 11.7137C48.0303 10.8853 48.2229 10.1147 48.589 9.42108C48.9743 8.7275 49.5138 8.16878 50.2073 7.7642C50.9202 7.34034 51.7486 7.12842 52.7119 7.12842C53.6752 7.12842 54.5037 7.34034 55.1972 7.7642C55.8908 8.18805 56.411 8.7275 56.7771 9.42108C57.1431 10.1147 57.3358 10.8468 57.3358 11.6367C57.3358 11.7715 57.3358 11.9064 57.3165 12.0413C57.2972 12.1761 57.2972 12.2917 57.278 12.3881H50.4193C50.4578 12.8312 50.5927 13.2165 50.8238 13.544C51.0358 13.8715 51.3248 14.122 51.6716 14.2954C52.0183 14.4688 52.3844 14.5458 52.789 14.5458C53.2321 14.5458 53.6752 14.4303 54.0605 14.2183C54.4459 14.0064 54.7349 13.7174 54.889 13.3514L56.8349 13.8908C56.6229 14.3339 56.3147 14.7385 55.9101 15.0853C55.5055 15.4321 55.0431 15.7018 54.5037 15.9137C53.945 16.1257 53.3477 16.222 52.6927 16.222ZM50.3807 10.9624H55.0239C54.9853 10.5192 54.8505 10.1339 54.6385 9.8064C54.4266 9.47888 54.1569 9.22842 53.8101 9.05502C53.4633 8.88163 53.0972 8.7853 52.6734 8.7853C52.2688 8.7853 51.9028 8.88163 51.556 9.05502C51.2284 9.22842 50.9587 9.49814 50.7468 9.8064C50.5349 10.1339 50.4193 10.5192 50.3807 10.9624Z" fill="white"/>
<path d="M64.0013 9.15153C63.3077 9.15153 62.6912 9.2864 62.1517 9.55612C61.6123 9.82585 61.227 10.2112 60.9765 10.6928V16.0488H58.7031V7.28273H60.7839V9.09374C61.0921 8.47722 61.4967 7.99557 61.9784 7.64878C62.46 7.30199 62.9802 7.10933 63.5196 7.0708C63.6352 7.0708 63.7316 7.0708 63.8086 7.0708C63.8857 7.0708 63.9242 7.0708 63.982 7.09007V9.15153H64.0013Z" fill="white"/>
<path d="M69.2425 16.2222C68.5296 16.2222 67.8746 16.1066 67.2966 15.8562C66.7186 15.625 66.237 15.2782 65.8324 14.8543C65.4278 14.4305 65.1195 13.9488 64.9076 13.3901C64.6957 12.8507 64.5801 12.2727 64.5801 11.6754C64.5801 11.0589 64.6957 10.4809 64.9076 9.94148C65.1195 9.40203 65.4278 8.90112 65.8324 8.47726C66.237 8.05341 66.7186 7.72589 67.2966 7.47543C67.8746 7.24424 68.5296 7.10938 69.2425 7.10938C69.9553 7.10938 70.6104 7.22497 71.1883 7.47543C71.7663 7.70662 72.248 8.05341 72.6526 8.47726C73.0571 8.90112 73.3654 9.38277 73.5773 9.94148C73.7892 10.4809 73.8856 11.0589 73.8856 11.6754C73.8856 12.2727 73.7892 12.8507 73.5773 13.3901C73.3654 13.9296 73.0571 14.4305 72.6718 14.8543C72.2672 15.2782 71.7856 15.6057 71.2076 15.8562C70.6104 16.1066 69.9553 16.2222 69.2425 16.2222ZM66.9305 11.6947C66.9305 12.1956 67.0269 12.658 67.2388 13.0433C67.4507 13.4286 67.7204 13.7369 68.0672 13.9681C68.414 14.18 68.8186 14.2956 69.2425 14.2956C69.6663 14.2956 70.0516 14.18 70.4177 13.9488C70.7645 13.7176 71.0535 13.4094 71.2461 13.0241C71.4581 12.6387 71.5544 12.1763 71.5544 11.6754C71.5544 11.1745 71.4581 10.7314 71.2461 10.3268C71.0342 9.92222 70.7645 9.61396 70.4177 9.40204C70.0709 9.19011 69.6856 9.07451 69.2425 9.07451C68.7993 9.07451 68.414 9.19011 68.0672 9.4213C67.7204 9.65249 67.4315 9.96075 67.2388 10.3461C67.0269 10.7314 66.9305 11.1938 66.9305 11.6947Z" fill="white"/>
<defs>
<linearGradient id="paint0_linear_955_5313" x1="1.06556" y1="3.84258" x2="9.05038" y2="3.84258" gradientUnits="userSpaceOnUse">
<stop stop-color="#39B54A"/>
<stop offset="0.1318" stop-color="#37B559"/>
<stop offset="0.4158" stop-color="#29B789"/>
<stop offset="0.8266" stop-color="#00BCD0"/>
<stop offset="1" stop-color="#00BFF3"/>
</linearGradient>
</defs>
</svg>
