<svg width="73" height="72" viewBox="0 0 73 72" fill="none" xmlns="http://www.w3.org/2000/svg">
<path d="M8.52036 57.4919L8.72242 56.8896L8.34844 56.376C4.18141 50.6534 1.73077 43.6066 1.73077 36C1.73077 16.8254 17.3215 1.23077 36.491 1.23077H36.509C55.6784 1.23077 71.2692 16.8298 71.2692 36C71.2692 55.1702 55.6784 70.7692 36.509 70.7692C29.4361 70.7692 22.881 68.6663 17.3842 65.0249L16.8921 64.6989L16.3297 64.8787L4.80665 68.5623L8.52036 57.4919Z" fill="white" stroke="#007AE8" stroke-width="2.46154"/>
<path d="M57.4565 50.8363C56.588 53.2888 53.141 55.3228 50.3915 55.9168C48.5105 56.3173 46.0535 56.6368 37.7825 53.2078C27.203 48.8248 20.39 38.0743 19.859 37.3768C19.3505 36.6793 15.584 31.6843 15.584 26.5183C15.584 21.3523 18.2075 18.8368 19.265 17.7568C20.1335 16.8703 21.569 16.4653 22.946 16.4653C23.3915 16.4653 23.792 16.4878 24.152 16.5058C25.2095 16.5508 25.7405 16.6138 26.438 18.2833C27.3065 20.3758 29.4215 25.5418 29.6735 26.0728C29.93 26.6038 30.1865 27.3238 29.8265 28.0213C29.489 28.7413 29.192 29.0608 28.661 29.6728C28.13 30.2848 27.626 30.7528 27.095 31.4098C26.609 31.9813 26.06 32.5933 26.672 33.6508C27.284 34.6858 29.399 38.1373 32.513 40.9093C36.5315 44.4868 39.7895 45.6298 40.955 46.1158C41.8235 46.4758 42.8585 46.3903 43.493 45.7153C44.2985 44.8468 45.293 43.4068 46.3055 41.9893C47.0255 40.9723 47.9345 40.8463 48.8885 41.2063C49.8605 41.5438 55.004 44.0863 56.0615 44.6128C57.119 45.1438 57.8165 45.3958 58.073 45.8413C58.325 46.2868 58.325 48.3793 57.4565 50.8363Z" fill="#4DC98D"/>
</svg>
