<svg width="20" height="27" viewBox="0 0 20 27" fill="none" xmlns="http://www.w3.org/2000/svg">
<path d="M3.0775 0.770147L5.20642 0.128283C5.90904 -0.0832169 6.6646 -0.0319006 7.33216 0.27266C7.99973 0.57722 8.53371 1.11422 8.83449 1.7835L10.327 5.10273C10.5861 5.67856 10.6583 6.32107 10.5335 6.94003C10.4087 7.559 10.0932 8.12335 9.63132 8.55384L7.35952 10.6707C7.05508 10.9597 7.28588 12.0863 8.39815 14.0141C9.51152 15.943 10.3721 16.7057 10.7689 16.587L13.7452 15.677C14.3485 15.4925 14.9944 15.5013 15.5924 15.7024C16.1904 15.9034 16.7105 16.2865 17.0798 16.7981L19.201 19.7381C19.6295 20.3318 19.8279 21.0608 19.7593 21.7897C19.6908 22.5187 19.36 23.198 18.8284 23.7014L17.1886 25.2544C16.6592 25.7557 16.0064 26.1076 15.2966 26.2743C14.5868 26.4409 13.8455 26.4163 13.1484 26.2029C9.71266 25.1511 6.53081 22.0297 3.56 16.8827C0.582583 11.728 -0.541776 7.38002 0.241869 3.82779C0.399922 3.11202 0.746006 2.45135 1.24445 1.91388C1.74289 1.37642 2.37565 0.981606 3.0775 0.770147Z" fill="#0089FF"/>
</svg>
