<svg width="45" height="45" viewBox="0 0 45 45" fill="none" xmlns="http://www.w3.org/2000/svg">
<circle cx="22.5" cy="22.5" r="22.5" fill="#001144"/>
<path fill-rule="evenodd" clip-rule="evenodd" d="M17.8362 12.8809C21.3191 12.6184 24.8174 12.6357 28.2975 12.9326L30.3938 13.1108C31.1636 13.1763 31.889 13.4988 32.4533 14.0264C33.0177 14.554 33.3883 15.256 33.5055 16.0196L33.6372 16.8838C34.0863 19.8131 34.0443 22.7968 33.5132 25.7123C33.3862 26.4094 33.0186 27.0398 32.4746 27.4937C31.9305 27.9476 31.2444 28.1962 30.5359 28.1962H18.9419C18.6745 28.1962 18.4123 28.2621 18.1772 28.3886L13.1255 31.1037C12.9779 31.1831 12.8122 31.2227 12.6447 31.2189C12.4772 31.215 12.3135 31.1678 12.1697 31.0817C12.0259 30.9957 11.9068 30.8738 11.8242 30.728C11.7416 30.5823 11.6982 30.4175 11.6982 30.2499V19.2488C11.6986 17.6431 12.3055 16.0968 13.3975 14.9196C14.4894 13.7424 15.9858 13.0211 17.587 12.9003L17.8362 12.8809ZM17.8337 19.2708C17.4054 19.2708 16.9948 19.4409 16.692 19.7437C16.3892 20.0465 16.2191 20.4571 16.2191 20.8854C16.2191 21.3136 16.3892 21.7242 16.692 22.027C16.9948 22.3298 17.4054 22.4999 17.8337 22.4999C18.2619 22.4999 18.6725 22.3298 18.9753 22.027C19.2781 21.7242 19.4482 21.3136 19.4482 20.8854C19.4482 20.4571 19.2781 20.0465 18.9753 19.7437C18.6725 19.4409 18.2619 19.2708 17.8337 19.2708ZM23.0003 19.2708C22.5721 19.2708 22.1614 19.4409 21.8586 19.7437C21.5559 20.0465 21.3857 20.4571 21.3857 20.8854C21.3857 21.3136 21.5559 21.7242 21.8586 22.027C22.1614 22.3298 22.5721 22.4999 23.0003 22.4999C23.4285 22.4999 23.8392 22.3298 24.142 22.027C24.4448 21.7242 24.6149 21.3136 24.6149 20.8854C24.6149 20.4571 24.4448 20.0465 24.142 19.7437C23.8392 19.4409 23.4285 19.2708 23.0003 19.2708ZM26.5524 20.8854C26.5524 20.4571 26.7225 20.0465 27.0253 19.7437C27.3281 19.4409 27.7388 19.2708 28.167 19.2708C28.5952 19.2708 29.0059 19.4409 29.3087 19.7437C29.6115 20.0465 29.7816 20.4571 29.7816 20.8854C29.7816 21.3136 29.6115 21.7242 29.3087 22.027C29.0059 22.3298 28.5952 22.4999 28.167 22.4999C27.7388 22.4999 27.3281 22.3298 27.0253 22.027C26.7225 21.7242 26.5524 21.3136 26.5524 20.8854Z" fill="#0089FF"/>
</svg>
