<svg width="7" height="28" viewBox="0 0 7 28" fill="none" xmlns="http://www.w3.org/2000/svg">
<path d="M-0.000590324 24.7692C-0.000590324 25.626 0.339792 26.4478 0.945678 27.0537C1.55156 27.6596 2.37332 28 3.23017 28C4.08703 28 4.90878 27.6596 5.51467 27.0537C6.12055 26.4478 6.46094 25.626 6.46094 24.7692C6.46094 23.9123 6.12055 23.0906 5.51467 22.4847C4.90878 21.8788 4.08703 21.5384 3.23017 21.5384C2.37332 21.5384 1.55156 21.8788 0.945678 22.4847C0.339792 23.0906 -0.000590324 23.9123 -0.000590324 24.7692ZM-0.000590324 14C-0.000590324 14.8568 0.339792 15.6786 0.945678 16.2845C1.55156 16.8904 2.37332 17.2307 3.23017 17.2307C4.08703 17.2307 4.90878 16.8904 5.51467 16.2845C6.12055 15.6786 6.46094 14.8568 6.46094 14C6.46094 13.1431 6.12055 12.3214 5.51467 11.7155C4.90878 11.1096 4.08703 10.7692 3.23017 10.7692C2.37332 10.7692 1.55156 11.1096 0.945678 11.7155C0.339792 12.3214 -0.000590324 13.1431 -0.000590324 14ZM-0.000590324 3.23076C-0.000590324 4.08762 0.339792 4.90937 0.945678 5.51526C1.55156 6.12115 2.37332 6.46153 3.23017 6.46153C4.08703 6.46153 4.90878 6.12115 5.51467 5.51526C6.12055 4.90937 6.46094 4.08762 6.46094 3.23076C6.46094 2.37391 6.12055 1.55215 5.51467 0.946269C4.90878 0.340383 4.08703 0 3.23017 0C2.37332 0 1.55156 0.340383 0.945678 0.946269C0.339792 1.55215 -0.000590324 2.37391 -0.000590324 3.23076Z" fill="#0089FF"/>
</svg>
