<svg width="23" height="23" viewBox="0 0 23 23" fill="none" xmlns="http://www.w3.org/2000/svg">
<g clip-path="url(#clip0_955_4291)">
<path d="M18.8596 11.8789C18.8596 11.4189 18.5079 11.0671 18.0479 11.0671C17.5879 11.0671 17.2361 11.4189 17.2361 11.8789C17.2361 15.0448 14.6655 17.6154 11.4996 17.6154C8.33377 17.6154 5.76318 15.0448 5.76318 11.8789C5.76318 11.4189 5.41141 11.0671 4.95141 11.0671C4.49141 11.0671 4.13965 11.4189 4.13965 11.8789C4.13965 15.6401 6.95377 18.806 10.6879 19.2119V21.3766H7.73847C7.27847 21.3766 6.92671 21.7283 6.92671 22.1883C6.92671 22.6483 7.27847 23.0001 7.73847 23.0001H15.2608C15.7208 23.0001 16.0726 22.6483 16.0726 22.1883C16.0726 21.7283 15.7208 21.3766 15.2608 21.3766H12.3114V19.2119C16.0455 18.806 18.8596 15.6401 18.8596 11.8789Z" fill="#808080"/>
<path d="M11.5003 0C9.01085 0 6.98145 2.02941 6.98145 4.51882V11.8518C6.98145 14.3682 9.01085 16.3706 11.5003 16.3976C13.9897 16.3976 16.0191 14.3682 16.0191 11.8788V4.51882C16.0191 2.02941 13.9897 0 11.5003 0Z" fill="#808080"/>
</g>
<defs>
<clipPath id="clip0_955_4291">
<rect width="23" height="23" fill="white"/>
</clipPath>
</defs>
</svg>
