<svg width="31" height="31" viewBox="0 0 31 31" fill="none" xmlns="http://www.w3.org/2000/svg">
<circle cx="15.5" cy="15.5" r="15.5" fill="#0089FF"/>
<path d="M11.0317 9.01807L23.725 15.0894C23.8532 15.1508 23.9613 15.2471 24.0371 15.3673C24.1128 15.4875 24.153 15.6266 24.153 15.7687C24.153 15.9107 24.1128 16.0499 24.0371 16.1701C23.9613 16.2903 23.8532 16.3866 23.725 16.4479L11.0317 22.5193C10.9015 22.5817 10.7561 22.6054 10.6129 22.5875C10.4696 22.5696 10.3345 22.5109 10.2237 22.4184C10.1129 22.3259 10.0309 22.2035 9.9877 22.0658C9.94446 21.9281 9.94172 21.7808 9.97981 21.6415L11.2497 16.9859C11.2653 16.9289 11.2973 16.8776 11.3417 16.8386C11.3862 16.7996 11.4412 16.7746 11.4998 16.7666L17.6506 15.931C17.6763 15.9274 17.7006 15.9173 17.7212 15.9016C17.7417 15.8858 17.7579 15.8651 17.7681 15.8413L17.779 15.8033C17.7837 15.7697 17.777 15.7354 17.7598 15.7061C17.7426 15.6768 17.716 15.6542 17.6844 15.6419L17.6512 15.6328L11.5064 14.7979C11.4479 14.7898 11.3931 14.7647 11.3487 14.7257C11.3044 14.6867 11.2725 14.6355 11.257 14.5786L9.97981 9.89582C9.94172 9.75658 9.94446 9.60932 9.9877 9.47159C10.0309 9.33385 10.1129 9.21145 10.2237 9.11896C10.3345 9.02647 10.4696 8.96778 10.6129 8.9499C10.7561 8.93201 10.9015 8.95567 11.0317 9.01807Z" fill="white"/>
</svg>
