<svg width="25" height="26" viewBox="0 0 25 26" fill="none" xmlns="http://www.w3.org/2000/svg">
<path d="M8.48031 4.0325C8.63643 3.72211 8.87572 3.46119 9.17149 3.27888C9.46726 3.09656 9.80787 3.00001 10.1553 3H14.8603C15.2087 3.00001 15.5502 3.09709 15.8465 3.28035C16.1428 3.4636 16.3822 3.72579 16.5378 4.0375L17.2691 5.5H19.3816C20.2104 5.5 21.0052 5.82924 21.5913 6.41529C22.1773 7.00134 22.5066 7.7962 22.5066 8.625V13.3263C21.7956 12.7362 20.9726 12.2962 20.0871 12.0326C19.2016 11.769 18.272 11.6873 17.3541 11.7925C17.0566 10.6103 16.3376 9.57735 15.3323 8.88782C14.3269 8.19829 13.1044 7.8996 11.8943 8.04788C10.6843 8.19617 9.57004 8.7812 8.76093 9.69308C7.95182 10.605 7.50354 11.7809 7.50031 13C7.50036 14.1162 7.8737 15.2003 8.56092 16.0798C9.24815 16.9593 10.2098 17.5838 11.2928 17.8538C11.1397 19.1938 11.3858 20.5493 12.0003 21.75H5.63281C4.80401 21.75 4.00916 21.4208 3.4231 20.8347C2.83705 20.2487 2.50781 19.4538 2.50781 18.625V8.625C2.50781 7.7962 2.83705 7.00134 3.4231 6.41529C4.00916 5.82924 4.80401 5.5 5.63281 5.5H7.74531L8.48031 4.0325ZM12.5003 9.25C14.2416 9.25 15.7053 10.4375 16.1278 12.045C15.0467 12.3744 14.0633 12.9647 13.2642 13.7638C12.465 14.563 11.8747 15.5464 11.5453 16.6275C10.6651 16.3944 9.89968 15.8491 9.39187 15.0933C8.88406 14.3374 8.6685 13.4227 8.78539 12.5197C8.90229 11.6166 9.34366 10.7869 10.0272 10.1853C10.7107 9.58373 11.5897 9.25128 12.5003 9.25ZM23.7503 18.625C23.7503 20.1168 23.1577 21.5476 22.1028 22.6025C21.0479 23.6574 19.6172 24.25 18.1253 24.25C16.6335 24.25 15.2027 23.6574 14.1478 22.6025C13.0929 21.5476 12.5003 20.1168 12.5003 18.625C12.5003 17.1332 13.0929 15.7024 14.1478 14.6475C15.2027 13.5926 16.6335 13 18.1253 13C19.6172 13 21.0479 13.5926 22.1028 14.6475C23.1577 15.7024 23.7503 17.1332 23.7503 18.625ZM18.7503 16.125C18.7503 15.9592 18.6845 15.8003 18.5673 15.6831C18.45 15.5658 18.2911 15.5 18.1253 15.5C17.9596 15.5 17.8006 15.5658 17.6834 15.6831C17.5662 15.8003 17.5003 15.9592 17.5003 16.125V18H15.6253C15.4596 18 15.3006 18.0658 15.1834 18.1831C15.0662 18.3003 15.0003 18.4592 15.0003 18.625C15.0003 18.7908 15.0662 18.9497 15.1834 19.0669C15.3006 19.1842 15.4596 19.25 15.6253 19.25H17.5003V21.125C17.5003 21.2908 17.5662 21.4497 17.6834 21.5669C17.8006 21.6842 17.9596 21.75 18.1253 21.75C18.2911 21.75 18.45 21.6842 18.5673 21.5669C18.6845 21.4497 18.7503 21.2908 18.7503 21.125V19.25H20.6253C20.7911 19.25 20.95 19.1842 21.0673 19.0669C21.1845 18.9497 21.2503 18.7908 21.2503 18.625C21.2503 18.4592 21.1845 18.3003 21.0673 18.1831C20.95 18.0658 20.7911 18 20.6253 18H18.7503V16.125Z" fill="white"/>
</svg>
