<svg width="25" height="26" viewBox="0 0 25 26" fill="none" xmlns="http://www.w3.org/2000/svg">
<g clip-path="url(#clip0_955_4919)">
<path d="M21.4983 5.7L24.5887 3.86C25.0141 3.60667 25.1095 3.31654 24.8749 2.9896C24.6402 2.66267 24.2201 2.49947 23.6145 2.5L2.68729 2.5C1.94828 2.5 1.31543 2.6568 0.78872 2.9704C0.262012 3.284 -0.000893531 3.66053 2.21129e-06 4.1L1.65178e-06 16.9C1.63255e-06 17.34 0.263356 17.7168 0.790063 18.0304C1.31677 18.344 1.94918 18.5005 2.68729 18.5L18.811 18.5C19.55 18.5 20.1829 18.3432 20.7096 18.0296C21.2363 17.716 21.4992 17.3395 21.4983 16.9L21.4983 5.7Z" fill="#0089FF"/>
<path d="M18 7.5L2 7.5" stroke="#075E54" stroke-linecap="round"/>
<path d="M11 11L2 11" stroke="#075E54" stroke-linecap="round"/>
</g>
<defs>
<clipPath id="clip0_955_4919">
<rect width="25" height="25" fill="white" transform="matrix(-4.37114e-08 1 1 4.37114e-08 0 0.5)"/>
</clipPath>
</defs>
</svg>
