<svg width="25" height="26" viewBox="0 0 25 26" fill="none" xmlns="http://www.w3.org/2000/svg">
<path d="M2.08366 21.3333C1.78852 21.3333 1.54095 21.2333 1.34095 21.0333C1.14095 20.8333 1.0413 20.5861 1.042 20.2917V18.4167C1.042 17.8264 1.19408 17.2837 1.49825 16.7885C1.80241 16.2934 2.20588 15.916 2.70866 15.6562C3.78505 15.118 4.8788 14.7142 5.98991 14.4448C7.10102 14.1753 8.2295 14.041 9.37533 14.0417C10.5212 14.0417 11.6496 14.1764 12.7607 14.4458C13.8719 14.7153 14.9656 15.1187 16.042 15.6562C16.5455 15.9167 16.9493 16.2944 17.2535 16.7896C17.5576 17.2847 17.7094 17.8271 17.7087 18.4167V20.2917C17.7087 20.5868 17.6087 20.8344 17.4087 21.0344C17.2087 21.2344 16.9614 21.334 16.667 21.3333H2.08366ZM19.2972 21.3333C19.4535 21.2118 19.575 21.0597 19.6618 20.8771C19.7486 20.6944 19.792 20.4906 19.792 20.2656V18.2083C19.792 17.4444 19.5795 16.7107 19.1545 16.0073C18.7295 15.3038 18.126 14.7007 17.3441 14.1979C18.2295 14.3021 19.0628 14.4802 19.8441 14.7323C20.6253 14.9844 21.3545 15.2923 22.0316 15.6562C22.6566 16.0035 23.134 16.3896 23.4639 16.8146C23.7937 17.2396 23.9587 17.7042 23.9587 18.2083V20.2917C23.9587 20.5868 23.859 20.8344 23.6597 21.0344C23.4604 21.2344 23.2128 21.334 22.917 21.3333H19.2972ZM9.37533 13C8.2295 13 7.24859 12.592 6.43262 11.776C5.61665 10.9601 5.20866 9.97915 5.20866 8.83332C5.20866 7.68749 5.61665 6.70658 6.43262 5.89061C7.24859 5.07464 8.2295 4.66665 9.37533 4.66665C10.5212 4.66665 11.5021 5.07464 12.318 5.89061C13.134 6.70658 13.542 7.68749 13.542 8.83332C13.542 9.97915 13.134 10.9601 12.318 11.776C11.5021 12.592 10.5212 13 9.37533 13ZM19.792 8.83332C19.792 9.97915 19.384 10.9601 18.568 11.776C17.7521 12.592 16.7712 13 15.6253 13C15.4344 13 15.1913 12.9781 14.8962 12.9344C14.601 12.8906 14.358 12.843 14.167 12.7917C14.6357 12.2361 14.9962 11.6198 15.2482 10.9427C15.5003 10.2656 15.626 9.56249 15.6253 8.83332C15.6253 8.10415 15.4996 7.40103 15.2482 6.72394C14.9969 6.04686 14.6364 5.43054 14.167 4.87499C14.4101 4.78818 14.6531 4.73158 14.8962 4.70519C15.1392 4.67881 15.3823 4.66596 15.6253 4.66665C16.7712 4.66665 17.7521 5.07464 18.568 5.89061C19.384 6.70658 19.792 7.68749 19.792 8.83332Z" fill="white"/>
</svg>
