<svg width="23" height="23" viewBox="0 0 23 23" fill="none" xmlns="http://www.w3.org/2000/svg">
<path d="M6.45625 10.1156C7.80625 12.7688 9.98125 14.9437 12.6344 16.2937L14.6969 14.2313C14.9594 13.9688 15.325 13.8938 15.6531 13.9969C16.7031 14.3438 17.8281 14.5312 19 14.5312C19.2486 14.5312 19.4871 14.63 19.6629 14.8058C19.8387 14.9817 19.9375 15.2201 19.9375 15.4688V18.75C19.9375 18.9986 19.8387 19.2371 19.6629 19.4129C19.4871 19.5887 19.2486 19.6875 19 19.6875C14.7731 19.6875 10.7193 18.0084 7.73049 15.0195C4.74162 12.0307 3.0625 7.97689 3.0625 3.75C3.0625 3.50136 3.16127 3.2629 3.33709 3.08709C3.5129 2.91127 3.75136 2.8125 4 2.8125H7.28125C7.52989 2.8125 7.76835 2.91127 7.94416 3.08709C8.11998 3.2629 8.21875 3.50136 8.21875 3.75C8.21875 4.92188 8.40625 6.04688 8.75312 7.09688C8.85625 7.425 8.78125 7.79063 8.51875 8.05313L6.45625 10.1156Z" fill="white"/>
</svg>
