<svg width="20" height="20" viewBox="0 0 20 20" fill="none" xmlns="http://www.w3.org/2000/svg">
<path d="M16.4287 0.955H16.3837V1V3.57143V3.61643H16.4287H19.0001H19.0451V3.57143V1V0.955H19.0001H16.4287Z" fill="white" stroke="black" stroke-width="0.09"/>
<path d="M16.4287 4.81218H16.3837V4.85718V7.42861V7.47361H16.4287H19.0001H19.0451V7.42861V4.85718V4.81218H19.0001H16.4287Z" fill="white" stroke="black" stroke-width="0.09"/>
<path d="M12.5713 0.955H12.5263V1V3.57143V3.61643H12.5713H15.1427H15.1877V3.57143V1V0.955H15.1427H12.5713Z" fill="white" stroke="black" stroke-width="0.09"/>
<path d="M12.5713 4.81218H12.5263V4.85718V7.42861V7.47361H12.5713H15.1427H15.1877V7.42861V4.85718V4.81218H15.1427H12.5713Z" fill="white" stroke="black" stroke-width="0.09"/>
<path d="M17.7143 9.95493H17.6693V9.99993V13.8121H2.33071V3.61636H10H10.045V3.57136V2.28564V2.24064H10H2.28571C1.93279 2.24064 1.59431 2.38084 1.34476 2.6304C1.0952 2.87996 0.955 3.21843 0.955 3.57136V13.8571C0.955 14.21 1.0952 14.5485 1.34476 14.798C1.59431 15.0476 1.93279 15.1878 2.28571 15.1878H7.38357V17.6692H4.85714H4.81214V17.7142V18.9999V19.0449H4.85714H15.1429H15.1879V18.9999V17.7142V17.6692H15.1429H12.6164V15.1878H17.7143C18.0672 15.1878 18.4057 15.0476 18.6552 14.798C18.9048 14.5485 19.045 14.21 19.045 13.8571V9.99993V9.95493H19H17.7143ZM8.75929 17.6692V15.1878H11.2407V17.6692H8.75929Z" fill="white" stroke="black" stroke-width="0.09"/>
</svg>
